<?xml version="1.0" standalone="no"?>
<!DOCTYPE svg PUBLIC "-//W3C//DTD SVG 20010904//EN"
 "http://www.w3.org/TR/2001/REC-SVG-20010904/DTD/svg10.dtd">
<svg version="1.0" xmlns="http://www.w3.org/2000/svg"
 width="1080.000000pt" height="1080.000000pt" viewBox="0 0 1080.000000 1080.000000"
 preserveAspectRatio="xMidYMid meet">
<metadata>
Created by potrace 1.14, written by Peter Selinger 2001-2017
</metadata>
<g transform="translate(0.000000,1080.000000) scale(0.100000,-0.100000)"
fill="#000000" stroke="none">
<path d="M5685 10432 c-539 -294 -1077 -776 -1446 -1292 -223 -312 -401 -661
-499 -978 -62 -203 -110 -459 -110 -593 0 -59 -1 -61 -23 -55 -12 3 -144 63
-292 134 -364 173 -666 316 -678 321 -24 9 7 -547 44 -778 72 -466 278 -1006
530 -1397 33 -50 59 -93 59 -97 0 -3 -26 3 -57 13 -392 127 -529 175 -717 250
-121 49 -222 87 -224 85 -7 -7 117 -244 188 -362 155 -255 320 -464 535 -678
204 -204 374 -342 593 -482 56 -36 102 -69 102 -73 0 -5 -35 -30 -77 -56 -365
-227 -759 -623 -998 -1004 -64 -103 -215 -389 -215 -409 0 -5 39 8 87 28 131
57 470 187 612 236 436 150 814 242 1141 280 145 16 360 20 360 7 0 -5 -12
-19 -26 -33 -44 -41 -215 -258 -290 -369 -176 -259 -314 -541 -414 -843 -17
-54 -30 -101 -27 -103 3 -3 49 20 102 51 432 249 909 409 1435 480 165 22 549
31 691 16 335 -37 663 -138 937 -289 l88 -49 115 34 c327 97 647 171 981 227
334 56 390 61 494 43 262 -47 668 -57 919 -23 295 40 602 124 833 228 59 26
63 30 58 55 -21 105 -66 638 -66 788 0 50 -3 100 -6 112 -4 13 -43 49 -90 83
-219 159 -433 365 -797 769 -127 141 -320 346 -429 456 -224 227 -212 208
-307 497 -109 335 -176 648 -255 1197 -14 96 -27 175 -28 176 -2 2 -57 35
-123 75 -241 145 -557 369 -810 575 -228 184 -513 462 -642 624 l-19 23 -43
-143 c-54 -179 -195 -594 -256 -754 l-46 -120 6 60 c3 33 9 112 15 175 28 326
22 744 -16 1050 -78 634 -292 1192 -627 1635 -71 93 -190 235 -197 235 -3 0
-36 -17 -75 -38z m-6 -896 c150 -229 292 -514 385 -770 45 -122 108 -323 120
-381 l7 -31 -128 63 c-91 45 -213 91 -432 163 -167 55 -308 100 -313 100 -16
0 -56 -102 -73 -185 -33 -159 20 -426 127 -639 22 -43 37 -80 35 -82 -7 -7
-121 36 -202 77 -74 38 -152 90 -232 155 l-31 25 -27 -46 c-101 -172 -164
-467 -187 -873 l-12 -213 -24 47 c-66 130 -115 342 -127 549 -35 616 338 1443
941 2084 42 45 80 81 84 81 4 0 44 -56 89 -124z m-1218 -3392 c44 -22 91 -75
117 -132 31 -68 28 -151 -7 -200 -32 -46 -54 -41 -91 19 -26 43 -30 58 -25 91
8 45 -14 88 -44 88 -31 0 -32 -26 -6 -108 14 -42 25 -101 25 -131 0 -49 -3
-57 -38 -91 -69 -70 -160 -61 -243 23 -95 96 -123 235 -62 308 35 42 56 37 92
-20 26 -43 29 -56 25 -98 -5 -40 -2 -53 16 -75 22 -29 57 -37 65 -15 3 7 -6
50 -20 96 -14 47 -25 100 -25 119 0 115 115 180 221 126z m2456 -411 l423
-229 215 -254 c119 -139 214 -254 212 -256 -3 -3 -878 233 -882 238 -1 2 -110
170 -242 373 -131 204 -248 383 -258 398 l-18 28 64 -35 c35 -19 254 -138 486
-263z m-2042 -159 c97 -123 109 -146 109 -215 1 -46 -4 -62 -27 -92 -16 -21
-46 -46 -67 -57 -78 -40 -147 -19 -230 70 l-55 60 -55 -45 c-30 -24 -63 -44
-72 -45 -23 0 -90 84 -86 109 4 24 364 311 390 311 9 0 50 -42 93 -96z m373
-437 c23 -23 42 -50 42 -58 0 -19 -342 -349 -362 -349 -18 0 -98 82 -98 100 0
19 340 349 360 349 9 1 35 -18 58 -42z m270 -259 c59 -48 61 -61 12 -119 -45
-54 -44 -55 50 -34 91 20 91 20 149 -27 47 -38 63 -69 42 -82 -6 -4 -253 -56
-267 -56 -1 0 -5 -66 -9 -147 -4 -82 -12 -154 -17 -160 -14 -18 -55 5 -101 57
l-37 40 6 98 6 97 -54 -59 c-42 -46 -57 -57 -70 -50 -32 18 -88 75 -88 89 0
13 289 360 314 377 17 12 21 10 64 -24z m599 -460 c79 -51 146 -101 149 -110
6 -19 -33 -84 -55 -93 -8 -3 -57 22 -109 57 l-94 62 -19 -25 c-10 -13 -19 -26
-19 -29 0 -3 38 -30 85 -60 46 -30 87 -61 90 -69 7 -18 -41 -91 -60 -91 -8 0
-54 25 -102 56 -66 43 -88 52 -95 42 -30 -45 -31 -43 67 -108 51 -34 96 -67
98 -74 8 -19 -42 -96 -61 -96 -20 0 -303 186 -315 207 -12 20 255 423 280 423
9 0 81 -42 160 -92z m424 -255 c27 -14 49 -32 49 -40 0 -7 -16 -45 -35 -83
-19 -38 -35 -72 -35 -75 0 -8 120 -66 128 -61 4 2 23 36 41 75 19 38 40 72 46
75 18 7 114 -41 122 -60 10 -26 -206 -454 -230 -454 -29 0 -117 49 -117 65 0
9 16 47 35 85 19 38 35 73 35 78 0 8 -104 62 -120 62 -5 0 -28 -36 -50 -80
-22 -44 -46 -80 -53 -80 -24 1 -112 55 -115 72 -3 14 186 405 210 436 15 18
35 15 89 -15z m657 -293 c23 -10 42 -25 42 -33 0 -7 -38 -114 -84 -238 l-84
-224 -33 1 c-54 3 -109 31 -109 56 0 18 151 435 167 461 6 10 44 2 101 -23z
m352 -115 c147 -41 164 -49 206 -90 56 -54 72 -106 56 -184 -32 -156 -63 -214
-132 -248 -55 -29 -107 -29 -207 -2 -150 40 -173 49 -173 71 0 25 108 436 121
461 13 22 27 22 129 -8z m765 -159 c33 -7 74 -20 92 -29 41 -22 83 -76 94
-124 9 -40 -4 -171 -23 -233 -36 -115 -119 -148 -308 -124 -152 20 -150 19
-150 57 0 30 43 373 55 446 l6 34 87 -7 c48 -4 114 -13 147 -20z m1458 7 c11
-19 59 -495 51 -503 -5 -4 -34 -11 -64 -15 l-56 -7 -88 107 c-49 58 -90 104
-92 102 -2 -2 1 -50 7 -106 9 -76 9 -105 1 -113 -7 -7 -38 -14 -71 -16 -51 -4
-60 -2 -65 14 -3 11 -17 124 -32 253 -21 188 -24 235 -14 241 19 12 94 22 112
15 8 -3 53 -53 99 -110 46 -58 85 -100 87 -95 2 5 -1 49 -7 97 -15 118 -14
122 12 133 27 11 114 13 120 3z m-654 -57 c7 -8 11 -36 9 -63 l-3 -48 -117 -3
-118 -3 0 -34 0 -35 99 0 c119 0 132 -8 124 -72 -3 -24 -11 -46 -17 -50 -6 -4
-57 -8 -114 -8 l-103 0 3 -32 3 -33 117 -3 c134 -3 140 -6 129 -82 l-6 -45
-184 -3 c-127 -2 -188 1 -197 9 -11 9 -14 59 -14 246 0 142 4 242 10 254 10
18 23 19 189 19 142 0 181 -3 190 -14z"/>
<path d="M4323 6130 c-69 -42 -82 -109 -43 -224 27 -82 24 -130 -8 -134 -48
-7 -98 67 -88 130 5 31 1 48 -20 84 -15 25 -31 43 -38 41 -25 -8 -56 -71 -56
-112 0 -125 113 -265 214 -265 74 0 136 58 136 128 0 16 -11 62 -25 103 -28
82 -29 126 -2 143 22 14 46 0 71 -44 16 -27 17 -38 8 -62 -9 -25 -7 -35 16
-74 32 -52 51 -55 77 -11 40 67 14 185 -56 256 -61 61 -129 76 -186 41z"/>
<path d="M4588 5510 c-104 -82 -188 -153 -188 -157 0 -5 17 -28 38 -51 l37
-44 68 53 c41 31 71 48 75 42 24 -37 91 -107 119 -124 47 -29 113 -29 156 1
77 53 98 135 56 215 -24 44 -157 215 -167 215 -4 -1 -91 -68 -194 -150z m241
-57 c37 -55 38 -69 9 -100 -29 -31 -68 -30 -99 5 -58 63 -58 60 -9 103 25 21
50 39 57 39 6 0 25 -21 42 -47z"/>
<path d="M4741 5450 c-33 -28 -34 -30 -17 -54 9 -14 27 -33 41 -42 23 -15 27
-15 50 0 32 21 32 56 -1 95 -14 17 -29 31 -32 31 -4 -1 -22 -14 -41 -30z"/>
<path d="M5024 5009 c-93 -90 -170 -171 -172 -179 -1 -8 15 -32 37 -54 l39
-38 173 168 c96 92 175 170 177 173 1 4 -18 26 -42 50 l-44 43 -168 -163z"/>
<path d="M5306 4708 l-155 -183 36 -37 c21 -21 42 -38 48 -38 6 0 35 29 65 65
30 36 56 65 59 65 3 0 5 -53 3 -118 l-4 -119 48 -41 c26 -23 50 -42 54 -42 11
0 20 82 20 181 0 135 -4 131 144 159 69 13 131 27 138 32 17 10 -68 87 -97 88
-11 0 -58 -7 -105 -15 -47 -8 -91 -15 -98 -15 -8 0 9 26 37 59 28 32 51 64 51
70 0 14 -61 70 -77 71 -7 0 -82 -82 -167 -182z"/>
<path d="M5821 4302 c-72 -109 -131 -202 -131 -207 0 -6 67 -54 148 -108 l147
-97 28 32 c15 18 27 37 27 44 0 6 -45 41 -100 78 l-101 67 18 30 c32 55 35 55
131 -9 49 -33 93 -57 98 -54 13 9 44 54 44 64 0 4 -40 35 -90 68 -49 33 -90
63 -90 65 0 11 45 75 53 75 4 0 48 -27 97 -60 49 -33 94 -60 99 -60 12 0 51
54 51 72 0 11 -276 198 -292 198 -3 0 -64 -89 -137 -198z"/>
<path d="M6360 3961 c-81 -164 -106 -222 -97 -229 20 -16 75 -42 90 -42 7 0
31 36 52 80 21 44 43 80 47 80 18 0 148 -71 148 -80 0 -6 -16 -42 -35 -80 -19
-38 -35 -75 -35 -83 0 -17 90 -61 102 -49 5 5 56 104 113 220 75 153 100 213
92 220 -18 15 -75 42 -86 42 -6 0 -29 -36 -51 -80 -22 -44 -43 -80 -45 -80 -5
0 -147 70 -153 75 -2 2 13 35 32 74 38 74 44 105 24 114 -7 3 -30 12 -50 21
l-38 16 -110 -219z"/>
<path d="M7106 3872 c-13 -22 -167 -444 -163 -448 3 -3 27 -14 55 -24 39 -15
52 -16 60 -7 12 16 162 422 162 440 0 8 -19 22 -43 31 -47 18 -63 20 -71 8z"/>
<path d="M7435 3758 c-3 -7 -32 -112 -64 -233 -46 -168 -57 -223 -48 -231 20
-19 209 -65 264 -65 104 0 154 49 193 190 36 130 22 199 -52 253 -39 29 -66
40 -173 68 -44 12 -88 24 -98 26 -9 3 -19 -1 -22 -8z m155 -133 c81 -21 98
-53 76 -149 -31 -132 -60 -158 -151 -136 -32 8 -55 19 -55 26 0 11 47 194 66
257 3 11 12 16 22 13 9 -2 28 -7 42 -11z"/>
<path d="M7522 3543 c-43 -158 -46 -172 -41 -177 14 -14 89 -23 110 -12 27 13
72 141 67 190 -3 33 -37 61 -84 71 l-32 6 -20 -78z"/>
<path d="M8095 3598 c-3 -7 -18 -114 -34 -238 -26 -194 -28 -226 -16 -236 19
-15 245 -39 286 -30 92 18 134 82 151 230 10 83 9 100 -6 140 -18 47 -58 86
-110 105 -25 10 -218 41 -253 41 -8 0 -16 -6 -18 -12z m214 -119 c41 -15 51
-35 50 -106 -1 -82 -19 -143 -49 -165 -21 -15 -36 -18 -83 -12 -67 8 -64 -5
-40 170 l16 124 37 0 c20 0 51 -5 69 -11z"/>
<path d="M8216 3448 c-15 -96 -26 -180 -26 -207 0 -31 0 -31 55 -31 68 0 80
15 95 123 15 104 1 129 -77 141 -41 6 -42 6 -47 -26z"/>
<path d="M9683 3593 c-39 -5 -39 -10 -22 -158 6 -51 9 -100 7 -109 -2 -12 -36
25 -103 108 l-100 126 -48 0 c-35 0 -49 -4 -54 -16 -7 -18 42 -457 52 -474 8
-12 96 -3 106 11 3 5 -1 57 -8 116 -7 60 -12 116 -11 127 2 13 32 -17 103
-102 l100 -121 46 0 c25 -1 49 3 55 9 10 10 -36 456 -50 478 -7 12 -13 12 -73
5z"/>
<path d="M8750 3295 l0 -245 130 -2 c72 -1 154 -2 183 -3 l52 0 3 44 c2 28 -1
47 -10 52 -7 5 -64 9 -125 9 l-113 0 0 50 0 49 113 3 112 3 0 40 0 40 -112 3
-113 3 0 49 0 50 120 0 c118 0 120 0 126 24 3 13 4 35 2 47 l-3 24 -182 3
-183 2 0 -245z"/>
<path d="M8356 10010 c-469 -137 -848 -312 -1226 -563 -101 -68 -297 -203
-312 -216 -15 -13 154 -601 172 -601 3 0 24 24 45 53 64 85 322 335 435 424
58 44 155 112 215 151 108 68 383 212 406 212 7 0 -51 -64 -127 -142 -330
-338 -524 -646 -604 -958 l-21 -81 49 -57 c119 -137 307 -301 475 -414 70 -47
91 -57 99 -47 27 40 176 347 218 450 192 466 282 977 303 1717 2 87 0 102 -13
101 -8 0 -59 -13 -114 -29z"/>
<path d="M2079 7356 c-372 -127 -612 -265 -791 -455 -83 -88 -79 -76 -114
-326 -20 -144 -32 -685 -15 -685 7 0 40 23 74 52 267 222 676 408 1042 474 77
14 145 27 152 29 8 3 4 31 -13 97 -50 197 -107 510 -150 826 -3 23 -10 42 -17
41 -7 0 -82 -24 -168 -53z"/>
<path d="M1685 5338 c-571 -367 -1018 -751 -1336 -1149 -89 -111 -189 -252
-189 -267 0 -6 73 -34 163 -62 753 -237 1079 -365 1382 -545 61 -35 113 -65
117 -65 3 0 28 39 54 88 221 409 559 881 848 1180 l71 74 -55 50 c-30 27 -145
118 -255 201 -362 273 -497 391 -625 543 l-35 42 -140 -90z"/>
<path d="M3405 2931 c-365 -125 -753 -364 -1114 -687 -186 -166 -454 -441
-589 -606 -12 -15 -8 -25 35 -85 227 -318 485 -506 933 -680 207 -80 885 -307
900 -301 5 2 -10 48 -32 102 -78 196 -148 474 -183 726 -25 177 -30 553 -11
737 28 266 73 477 150 706 23 70 38 127 32 126 -6 0 -60 -17 -121 -38z"/>
<path d="M5775 2313 c-227 -12 -558 -59 -725 -104 -249 -67 -443 -155 -569
-257 l-44 -36 6 -76 c3 -42 18 -114 32 -161 86 -275 386 -740 744 -1149 l66
-75 1 165 c0 151 3 175 31 280 105 396 329 819 742 1401 13 18 10 19 -105 17
-66 -1 -146 -3 -179 -5z"/>
</g>
</svg>
